<svg width="199" height="199" viewBox="0 0 199 199" fill="none" xmlns="http://www.w3.org/2000/svg">
<path d="M184.233 77.9449H120.46V14.1718C120.46 6.34631 114.114 0 106.288 0H92.1167C84.2912 0 77.9449 6.34631 77.9449 14.1718V77.9449H14.1718C6.34631 77.9449 0 84.2912 0 92.1167V106.288C0 114.114 6.34631 120.46 14.1718 120.46H77.9449V184.233C77.9449 192.059 84.2912 198.405 92.1167 198.405H106.288C114.114 198.405 120.46 192.059 120.46 184.233V120.46H184.233C192.059 120.46 198.405 114.114 198.405 106.288V92.1167C198.405 84.2912 192.059 77.9449 184.233 77.9449Z" fill="black"/>
</svg>
